# xmcd CD database file
#
# Track frame offsets:
#	150
#	23888
#	42378
#	64097
#	85149
#	108804
#	138278
#	166459
#	176124
#
# Disc length: 2671 seconds
#
# Revision: 0
# Processed by: cddbd v1.5.1PL0 Copyright (c) Steve Scherf et al.
# Submitted via: CDex 1.51
#
DISCID=720a6d09
DTITLE=Jazz Lounge - La Première Heure
DYEAR=2005
DGENRE=Jazz
TTITLE0=Alt (Michele Polga)
TTITLE1=7:00 AM (Andrea Lobardi)
TTITLE2=Up Too Late (Steve Swallow)
TTITLE3=Slow Motian (Andrea Lobardini)
TTITLE4=Green Chimneys (Thelonius Monk)
TTITLE5=Ad Infinitum (Carla Bley)
TTITLE6=Breakfast (Andrea Lobardini)
TTITLE7=Body And Soul (Green)
TTITLE8=Alt (Alternative Take)
EXTD=YEAR: 2005
EXTT0=
EXTT1=
EXTT2=
EXTT3=
EXTT4=
EXTT5=
EXTT6=
EXTT7=
EXTT8=
PLAYORDER=
